<?xml version="1.0" encoding="UTF-8"?>
<svg id="Layer_1" xmlns="http://www.w3.org/2000/svg" version="1.1" viewBox="0 0 1024 638">
  <!-- Generator: Adobe Illustrator 29.5.1, SVG Export Plug-In . SVG Version: 2.1.0 Build 141)  -->
  <defs>
    <style>
      .st0 {
        fill: #f21127;
      }

      .st1 {
        fill: #292622;
      }

      .st2 {
        fill: #fdfdfd;
      }
    </style>
  </defs>
  <path class="st1" d="M931.01,460c-1.13,5.51-2.48,10.95-8,13.51-2.21,1.02-5,1.02-6.95,2.05-3.48,1.85-9.4,11.5-12.93,6.79-2.02-2.69-8.99-16.66-10.78-17.25-4.99-1.66-6.83,7.57-6.17,11.14,1.21,6.47,8.78,8.7,8.89,9.35.65,3.86-5.41,8.2-9.07,7.41.96-7.82-7.16-11.88-9.16-18.84l-5.85-.17c-1.91-1.9,4.8-9.6,6.52-10.99,3.12-1.27,1.53,9.19,5.48,7.99-.37-4.89,2.7-15.1,8.5-15.11,7.14,0,12.07,16.49,16.53,18.67,1.94.95,4.66-2.1,6.97-1.57-.65-3.35-4.38-4.16-6.43-7.06-3.7-5.23-4.08-16.47.9-20.96,2.55-2.3,6.35-.88,3.99-5.92-.19-.41-3.62-4.93-3.88-5.11-2.28-1.65-6.26-.62-6.58-.93-2.26-2.2,4.01-13.3,8.51-9.01,3.74,5.79,7.29,13.17,11.52,18.49,1.7,2.13,14.06,14.58,15.47,14.55,1.07-.02,4.81-3.86,5.5-.51.15.71-6.13,8.2-6.64,8.37-4.7,1.59-3.45-3.28-6.34-4.88ZM914.72,447.14c-5.93,1.59-2.5,15.84,4.33,18.32,12.61,4.58,6.68-21.27-4.33-18.32Z"/>
  <path class="st1" d="M836,480.5c.48-4.61,1.2-10.21,6.91-10.44,3.09,4.45,14.06,31.03,17.7,31.72,1.37.26,3.65-1.28,5.39-.78,1.69,1.52-8.77,9.79-11.87,7.86-.7-.43-3.95-11.21-5.61-12.89l-7.52-12.98v33.5c0,.55-1.52,1.5-2.45,1.51-5.72.1-18.85-20.7-24.54-24.01.89,4.3,2.24,9.57,3.85,13.61.56,1.4,1.7,1.45,2.04,2.2.69,1.53,2.82,8.8,3.23,9.06,1.35.86,7.63-1.5,4.65,3.93-.56,1.03-11.5,6.42-12.77,5.2-.69-3.54,2.99-3.78,2.82-7.21-.25-4.99-6.65-21.36-8.53-27.58-.8-2.66-3.53-3.93-1.38-6.77,1.3-1.72,5.03-3.24,7.07-1.96l21,21.52c.61-8.19-.83-17.45,0-25.5Z"/>
  <path class="st1" d="M321.65,568.7c-.09.31-1.44,0-1.71,1.74-.18,1.17-.28,3.35,1.55,2.56,4.48-1.94,11.34-16.92,15.99-16,3.58.71-.72,14.46.52,17.5-.12.87,1.86.6,1.99.49.46-.38,5.96-9.01,6.46-10.05.77-1.6.26-4.64,1.48-5.52,6.58-.16,12.86,2.83,20.07,1.58.56,2.92-2.03,3.98-3.05,6.44s-5.48,16.44-4.52,17.63c1.01,1.26,5.89.22,3.14,3.99-1.06,1.45-11.12,1.9-12.5-.63-.54-2.26,6.75-16.64,6.96-20.02.19-3.12-2.89-5.83-5.57-3.48-3.04,4-15.1,22.55-19.11,22.92-6.62.6-.43-15.36-2.33-17.84-1.12-1.47-3.45,3.09-4.32,3.12l-8.1,10.94c-6.55,2.91-6.01.16-5.56-5.56.34-4.33,3.3-13.89,3.04-16.94-.11-1.31-6.75-.25-5.04-4.06.92-2.06,11.05-3.68,12.58-1.56.65.91-1.4,10.95-1.93,12.74Z"/>
  <path class="st1" d="M610,546c2.14,2.2-3.28,3.86-3.82,5.68-1.26,4.22-1.91,17.56-2.22,22.77-.29,4.74-1.5,10.09,4.05,8.55-.2,1.09.38,3.24-.14,3.87-.47.59-13.55,2.53-14.9,1.65-3.32-2.17,2.26-3.45,2.86-5.19.4-1.15,1.64-12.86,1.17-13.34l-17.9,2.11c1.01,3.22-2.69,13.95.5,14.69.29.07,6.53-1.39,3.92,2.24-1.14,1.58-15.88,3.59-16.53,2.96-2.11-2.05,3.38-4.38,3.83-5.66l3.08-32.25c-2.24.55-5.46-2.44-3.92-4.08.52-.55,14.46-2.53,15-2,1.99,1.95-2.79,4.19-3.42,5.07-1.82,2.5-1.98,9.36-1.57,12.45.19,1.44-.58,1.69,1.42,1.42,2.42-.32,14.7-1.92,15.59-2.43,1.47-.83,3.26-10.82,2.92-11.9-.69-2.22-5.54-.56-3.93-4.11,1.06-2.34,13.32-3.2,14-2.5Z"/>
  <path class="st1" d="M410,546l-7.99,20.99c4.34.36,6.22-3.87,10.51-4.07,15.45-.7,1.47,20.77,2.63,25.48.43,1.72,5.17,2.01,3.84,5.58-3-1.2-11.98,2.78-12.96-.6-.52-1.8,5.64-17.54,5.79-21.12.24-5.91-10.55,1.14-12.28,3.77-.6.91-3.26,8.61-3.37,9.72-.69,6.54,3.71,8.86-8.13,6.18-.84-.97,5.53-21.9,6.44-24.96,1.14-3.84,5.55-11.93,4.41-15.37-.61-1.84-3.49-.79-2.89-3.1,1.24-2.63,11.24-2.69,13.99-2.51Z"/>
  <path class="st1" d="M712.99,517c-1.66,7.67-.22,14.34.01,21.99l8.25-7.23c13.96-5.76,8.86,16.1,12.23,21.26,1.31,2.01,3.66.11,5.51-.02-.13,1.07.27,2.42.05,3.35-.13.55-9.05,4.97-10,5.21-4.83,1.24-2.66-7.76-3.06-11.05-.49-4.17-1.45-8.45-2.47-12.5-8.62,1.47-11.01,10.73-9.5,18.47.47,2.4,5.89,5.66.98,8.01-11.19,5.34-7.54-9.69-7.95-16.03-.52-7.91-2.01-15.88-1.97-23.85-11.6-2.89,6.66-8.9,7.93-7.6Z"/>
  <path class="st1" d="M308.99,534.01c.83.79-8.06,16.79-9.17,19.32-1.21,2.77-8.81,21.69-7.83,22.67.21.22,5.41-.87,2.55,3.06-.95,1.31-10.18,1.33-10.56.95-.32-.33.24-4.77,0-6-.78-.83-15.22,6.56-16.97-2.53-2.53-13.14,14.92-29.7,27.96-21.48-.03-3.59,3.7-7.57,4.05-10.57.27-2.35-3.52-1.56-3.03-3.91.55-2.66,10.74-1.14,12.99-1.51ZM284.72,552.17c-7.39,2.2-15.48,22.01-3.68,18.4,10.69-3.27,14.05-21.49,3.68-18.4Z"/>
  <path class="st1" d="M103.01,461c-1.88-1.9,6.8-8.28-2.66-13.84-11.56-6.8-27.24,7.6-25.3,20.28,1.38,9.01,10.14,4.6,12.43-.45,1.01-2.23-.62-6.44,2.03-6,2.2.37,9.14,7.44,7.5,9.01-6.43-1.08-11.88,10.83-17.43,10.02-1.73-.25-7.32-4-8.59-5.5-14.1-16.76,13.04-42.7,32.7-30.7,9.87,6.03,12.19,13.69-.69,17.19Z"/>
  <path class="st1" d="M797.03,532.98c.87.76,4.99-1.08,6.46-.99,4.51.2-6.85,8.06-8.45,8.59-1.08.36-2.03.81-3.1,0-1.69-1.26-3.3-15.74-4.86-19.16-.5-1.09-.91-2.78-2.55-2.41-5.36,4.26-7.6,9.51-6.46,16.43,1.12,6.84,8.63,11.01-6.06,11.56.5-3.43-1.82-19.03-4.01-20.5-1.04-.7-2.99-.36-3.98-1.02-4.02-2.65,6.4-11.17,9.98-9.49.34,14.32,3.17,1.45,7.97-2.53,13.23-10.95,12.75,17.49,15.06,19.51Z"/>
  <path class="st1" d="M525.99,591.01c.33.32,4.77-.24,6,0,2.2,1.6-14.85,10.94-14.49,2-28.59,20.87-13.01-17.51-14.51-18.99-.24-.24-6.33-.51-4-4,.35-.52,11.04-3.82,11.99-3.01-.37,5.26-5,19.49-3.27,23.71,1.44,3.52,9.9-2.87,10.75-4.74,2.32-5.1.23-17.03.69-17.8.42-.7,6.33-3.89,7.88-2.74,2.48,1.82-2.74,23.88-1.05,25.57Z"/>
  <path class="st1" d="M462,560c-.3-.3-2.7.29-3,0-.38-.36.71-3.8,1.68-4.04,1.26-.31,8.4-.19,9.66.2,5.32,1.66-2.27,6.05-3.85,7.83-4.98,5.62-17.66,19.08-16.56,26.51.26,1.72,5.33,3.96,3.06,6.49-.53.6-13.65-2.36-16-1-1.13-5.58,2.71-2.86,5.21-7.3,4.36-7.76-.79-16.71-3.01-24.38l-5.18-6.8c.67-1.36,7.02-2.59,8.54-2.56,6.51.15,3.21,5.06,3.64,8.26.24,1.81,3.01,11.47,4.32,11.78l10.97-12.02c.52-.65.78-2.72.52-2.98Z"/>
  <path class="st1" d="M222.86,512.14c2.93,2.36-1.52,9.37-5.36,9.88-4.07.54,1.96-5.37.5-7-.35-.39-8.91-3.11-9.99-2.55l-9,12.03c1.04,1.85,3.26,1.03,4.67,1.86.45.27,1.49,2.52,2.84,2.66.28.03,1.89-4.07,4.48-3,.9,4.14-3.24,4.82-4.01,7.99h-.96c-.36-2.89-7.99-6.74-10.41-4.91-.42.32-5.4,8.1-5.48,8.6-.25,1.59,5.55,5.16,1.29,6.28-.9.24-17.85-4.43-13.84-7.96,7.29,1.16,9.64-8.49,13.02-12.9.98-1.27,2.8-1.69,3.85-3.15,2.25-3.12,10.18-12.48,3.55-12.97,2.36-7.66,16.21,2.89,20.74,4.81,1.2.51,3.48-.17,4.12.35Z"/>
  <path class="st1" d="M661.99,571c.46.45,5.05-.73,5.02.51-2.54,5.62-9.96,13.34-12.51,3.49-9.46,17.1-21.36-1.37-9.88-8.88,2.13-1.39,10.3-2.97,10.48-5.62s-1.57-6.23-4.44-6.31c-4.18-.12-2.95,6.19-4.59,7.38-2.98,2.15-5.45-.39-5.06-3.99.76-7.09,13.8-11.36,18.58-7.68,3.6,2.77,1.56,20.26,2.4,21.1ZM654.99,567.01c-3.99.16-10.58,2.8-7.03,7.55,4.76,1.2,8.04-2.93,7.03-7.55Z"/>
  <path class="st1" d="M468.32,595.68c-7.18-6.56.16-26.34,10.41-28.45,24.66-5.08,18.31,28.23,2.71,30.7-3.64.58-10.3.33-13.12-2.25ZM478.28,572.3c-4.83,4.03-7.8,22.37,1.22,21.8,11.27-.72,9.36-30.62-1.22-21.8Z"/>
  <path class="st1" d="M138,517.99c-.64-.68-17.43,1.68-10.46-8.95,6.13-9.35,20.35,2.16,23.24-6.76s-4.77-2.2-7.49-1.49c-3.87,1.01-5.72.25-3.77-3.77,2.3-4.75,12.37-5.1,16.43-2.47,9.82,6.35-6.7,18.07-8.44,23.51-.76,2.4,2.01,4.57-3.25,5.73-8.95,1.97-5.35-4.81-6.27-5.79ZM143.99,512.98c2.56-3.6-11.63-5.93-9.96.45.84,3.21,9.07.8,9.96-.45Z"/>
  <path class="st1" d="M252.74,539.24c30.24-5.19,13.14,38.09-9.73,28.25-12.84-5.52-1.32-26.36,9.73-28.25ZM255.66,561.65c6.77-6,9.47-22.14-1.61-18.11-12.16,4.42-11.67,29.87,1.61,18.11Z"/>
  <path class="st1" d="M223.78,529.23c28.11-3.02,13.59,37.6-9.48,27.96-15.47-6.46-2.37-26.68,9.48-27.96ZM224.72,534.2c-7.93,1.79-14.34,18.56-6,20.66s22.66-24.43,6-20.66Z"/>
  <path class="st1" d="M126,509c-24.35,2.77-24.97-19.18-4.67-27.17,7.17-2.82,18.11-2.42,16.62,7.6-1.16,7.81-10.24,6.36-15.77,4.9-2.51-.66-6.31-4.84-7.21,1.24-1.19,8.04,11.55,6.4,11.03,13.43ZM121,487.01c-2.8,3.75,12.02,4.61,10.99-.5-.63-3.15-10.24-.5-10.99.5Z"/>
  <path class="st1" d="M633.65,565.65c-1.06,1.11-3.86,2.49-5.37,3.14-4.23,1.82-12.37.92-6.77,8.19,4.59,5.96,14.72-1.79,15.48-.98-.01,7.5-10.67,11.17-17.03,9.52-11.36-2.95-8.42-22.28-1.48-28.54,8.61-7.76,24.3-.88,15.16,8.66ZM622.26,558.27c-3.96,3.91-4.48,12.55,3.25,6.74,5.72-4.3.3-10.25-3.25-6.74Z"/>
  <path class="st1" d="M670,534c-.23-.25-6.32-.11-3.55-4.05.57-.8,10.66-4.84,11.55-3.94l-1,40.5c.9,4.52,6.09.35,5.03,5.02-.89,3.94-12.03,5.77-12.03,1.98,0-5.28,1.33-38.04,0-39.5Z"/>
  <path class="st1" d="M179.99,496.01c1.36,3.07-4.36,6.9-3.99,8.48l6,2.53c-.41,8.47-7.1.71-10.97,2.45-1.44.65-10.45,13.39-10.92,15.21-.67,2.58,7.5,2.92,6.88,5.82s-19.29,1.9-15.46-7.45c1.49-3.63,13.03-14.61,13.38-16.68.22-1.33-2.16-2.54-1.92-3.83,1.59-2.86,4.01-.19,5.99-.99,2.58-1.04,5.88-7.51,11.01-5.53Z"/>
  <path class="st1" d="M386.99,552.01l-2.99,10.99c.57.53,9.59-1.64,7.99,3.5-1.09,3.5-7.46-.81-10.04.96-1.26.87-10.12,24.35,1.05,19.56,2.69,6.11-10.51,6.51-13.25,5-4.69-2.58,4.68-20.16,4.3-24.52-.24-2.84-4.02-1.87-3.05-3.97,1.14-1.76,3.54-1.18,4.93-2.07s8.44-12,11.05-9.44Z"/>
  <path class="st1" d="M543.99,564l.02,6c3.8-2.4,5.6-7.37,10.99-6,1.83,10.8-6.77,5.01-10.51,12.99-3.06,6.52-2.38,10.41-.52,16.98-3.41.45-11.47,3.47-10.7-2.3.17-1.24,1.34-2.65,1.63-4.27.53-2.91,2.74-12.83,2.17-14.79-.33-1.13-4.54-.46-4.07-3.09,2.67-3.39,6.64-5.35,10.99-5.51Z"/>
  <path class="st1" d="M114,468.01c.89,1.25-2.62,3.28-1.99,4.98,5.55-1.32,13,1.13,7.54,7.05-4.95,5.37-5.56-2.04-6.11-2.13-8.92-1.44-15.41,11.91-19.15,12.94-3.2.88-7.62-3.08-5.82-5.87,1.54-2.4,12.03-8.42,13.07-11.02.66-1.62-1.04-4.5-.54-4.97.17-.16,3.02.14,4.26-.23,1.89-.57,7.02-3.17,8.74-.76Z"/>
  <path class="st1" d="M757.99,521c2.38,4.04,1.93,23.87,5.64,24.93,1.62.46,4.99-2.55,4.38.58-.83,4.32-8.04,5.04-11.46,6.47-2.81-1.62-.54-3.86-.81-6.22-.24-2.18-3.04-15.79-3.72-16.29-1.04-.76-5.7-.26-5.03-2.96.22-.86,9.85-7.34,10.99-6.51Z"/>
  <path class="st1" d="M882.99,493.01c.98.96-7.11,10.62-10.99,8.56-2.51-1.33-8.35-19.73-11.61-20.35-.84-.16-5.57,2.13-4.38-.69.58-1.38,6.41-6.9,8.3-6.42,4.46,1.15,7.85,21.73,13.96,20.78,1.65-.26,2.77-2.31,4.72-1.87Z"/>
  <path class="st1" d="M86,424.01c2.74,2.26-13.06,6.6-13.99,8.51-2.14,4.41,8.51-1.58,9.2-1.81,5.52-1.84,13.55-3.38,5.98,3.22-1.09.95-9.31,6.83-9.89,6.97-4.06,1.02-4.93-3.96-5.55-4.58-1.68-1.67-9.53-2.57-6.28-7.36,1.09-1.61,18.92-6.28,20.54-4.95Z"/>
  <path class="st1" d="M932,413.5c-.02-.45-1.17-1.53-1.07-2.97.17-2.57,3.8-3.74,6.03-3.5.95.68.23,18.87-.86,20.39-.88,1.22-2.8.41-4.1.59-.14-4.81.2-9.68,0-14.5Z"/>
  <path class="st1" d="M929,430.5c-.22.77-2.24,2.03-2.99,1.5-.93-.66-.79-6.74-1.22-8.28-.64-2.29-2.88-3.6-2.89-6.22-.02-4.67,7.1-8.42,7.1-2,0,3.44.7,12.55,0,15Z"/>
  <path class="st1" d="M750.66,510.14c7.24-2.44,8.4,9,.89,7.88-4.74-.7-4.07-6.81-.89-7.88Z"/>
  <path class="st1" d="M370.87,548.14c1.92,3-2.11,10.48-6.44,6.97-5.2-4.21,3.97-10.83,6.44-6.97Z"/>
  <path class="st1" d="M856.7,463.16c6.86-1.96,4.87,8.67-1.07,6.76-2.89-.93-1.85-5.93,1.07-6.76Z"/>
  <path class="st1" d="M692.99,531c.29,1.58-.38,8.62,0,9,.64.64,18.55-1.44.94,5.61,1.36,6.7-3.86,18.96,5.63,19.31.22,0,.83-2.69,3.41-1.43-1.09,1.3-1.55,2.95-2.98,4.01-.43.32-6.91,3.62-7.43,3.6-.95-.02-2.09.05-2.94-.24-4.79-1.65-.89-20.71-3.5-24.29-1.08-1.48-4.16.17-4.13-1.09s7.18-10.66,7.53-13.47l3.48-1.01Z"/>
  <path class="st2" d="M914.72,447.14c11.01-2.95,16.94,22.9,4.33,18.32-6.83-2.48-10.26-16.73-4.33-18.32Z"/>
  <path class="st2" d="M284.72,552.17c10.37-3.09,7,15.13-3.68,18.4-11.79,3.61-3.71-16.2,3.68-18.4Z"/>
  <path class="st2" d="M654.99,567.01c1.01,4.62-2.27,8.75-7.03,7.55-3.55-4.75,3.04-7.39,7.03-7.55Z"/>
  <path class="st2" d="M478.28,572.3c10.58-8.83,12.49,21.08,1.22,21.8-9.02.58-6.05-17.77-1.22-21.8Z"/>
  <path class="st2" d="M143.99,512.98c-.89,1.25-9.12,3.65-9.96.45-1.67-6.37,12.52-4.04,9.96-.45Z"/>
  <path class="st2" d="M255.66,561.65c-13.27,11.76-13.77-13.69-1.61-18.11,11.08-4.03,8.38,12.12,1.61,18.11Z"/>
  <path class="st2" d="M224.72,534.2c16.66-3.77,2.34,22.76-6,20.66s-1.93-18.87,6-20.66Z"/>
  <path class="st2" d="M121,487.01c.75-1,10.36-3.65,10.99-.5,1.03,5.11-13.79,4.25-10.99.5Z"/>
  <path class="st2" d="M622.26,558.27c3.56-3.51,8.97,2.44,3.25,6.74-7.73,5.81-7.21-2.83-3.25-6.74Z"/>
  <path class="st2" d="M951.5,410c.65.33.65.67,0,1v-1Z"/>
  <path class="st0" d="M844.72,139.78C673.78,20.88,353.23,20.68,173.33,119.83,85.15,168.42,6.99,260.35,69.58,362.92c65.14,106.71,239.95,152.74,356.93,162.07,138.32,11.03,333.8-14.59,442.14-108.34,105.57-91.36,85.16-201-23.93-276.87ZM820.92,435.42c-173.99,108.23-487.13,107.45-660.44-2.4-85.48-54.17-140.49-143.09-65.45-234.49C171.95,104.83,335.52,66.16,451.79,61.29c131.37-5.49,308.82,18.94,410.68,108.74,106.51,93.89,66.33,198.27-41.55,265.39Z"/>
  <path class="st2" d="M862.47,170.03c-101.86-89.8-279.31-114.23-410.68-108.74-116.27,4.87-279.84,43.54-356.76,137.24-75.04,91.4-20.03,180.32,65.45,234.49,173.31,109.85,486.45,110.63,660.44,2.4,107.88-67.12,148.06-171.5,41.55-265.39ZM816.92,425.42c-174.89,109.11-511.69,108.79-676.82-20.02-106.32-82.94-83.05-183.27,22.38-251.42,162.1-104.78,456.51-107.64,626.15-19.6,46.35,24.06,97.88,60.08,117.4,111.09,29.79,77.9-27.47,141.48-89.11,179.95Z"/>
  <path class="st0" d="M906.03,245.47c-19.52-51.01-71.05-87.03-117.4-111.09-169.64-88.04-464.05-85.18-626.15,19.6-105.43,68.15-128.7,168.48-22.38,251.42,165.13,128.81,501.93,129.13,676.82,20.02,61.64-38.47,118.9-102.05,89.11-179.95ZM758.34,441.37c-155.78,75.52-422.97,72.17-572.26-20.95-97.02-60.51-130.79-154.34-36.09-238.93,115.9-103.54,350.12-114.5,495.2-84.18,81.69,17.07,197.61,61.58,233.67,143.33,41.8,94.78-45.45,164.34-120.52,200.73Z"/>
  <path class="st2" d="M878.86,240.64c-36.06-81.75-151.98-126.26-233.67-143.33-145.08-30.32-379.3-19.36-495.2,84.18-94.7,84.59-60.93,178.42,36.09,238.93,149.29,93.12,416.48,96.47,572.26,20.95,75.07-36.39,162.32-105.95,120.52-200.73ZM876.71,305.21c-9.23,59.28-69.56,100.13-119.3,124.22-156.31,75.72-433.63,75.33-579.13-27.21-98.5-69.42-97.24-161.6,1.41-230.03,135.04-93.68,383.76-97.5,534.83-44.21,73.09,25.78,176.47,85.52,162.19,177.23Z"/>
  <path class="st0" d="M714.52,127.98c-151.07-53.29-399.79-49.47-534.83,44.21-98.65,68.43-99.91,160.61-1.41,230.03,145.5,102.54,422.82,102.93,579.13,27.21,49.74-24.09,110.07-64.94,119.3-124.22,14.28-91.71-89.1-151.45-162.19-177.23ZM601.01,195l4.99,1v15.5c0,1.1-2.44,1.43-3.45,1.55-4.34.51-21.13.68-25.05-.05-2.96-.55-2.61-2.32-2.5-5h26v-13ZM579.02,140.53c-1.07-4.81-11.02-3.53-11.02-4.53v-14.5c0-2.16,16.13-1.88,16.82-1.28.47.4.05,1.67.18,1.78.37.32,2.31-.1,2.86,1.6,2.86,8.85-6.01,4.92-10.86,7.4,5.33.36,5.82.94,9,5,.68.87,1.95,1.01,2.55,2.92,3.65,11.58-10.86,18.57-19.55,11.08-1.68-1.45-4.69-3.14-2.57-6.07,2.07-2.86,14.04,3.05,12.59-3.4ZM515.96,127.46c1.3-10.63,20.52-10.48,22.04,1.54h3c.82-5.24,1.56-8.32,7.47-9.02,9.03-1.07,11.05,1.15,15.53,8.02.17.26,1.44.36,1.81,1.64,2.62,8.96-7.87,25.79-17.18,23.4-1.19-.3-.45-1.79-.63-2.04-.24-.34-1.5-.52-1.84-1.67-1.51-5.06,6.13-5.27,7.84-9.32-5.17.7-9.03-.9-13-4.01-1.12,6.22-8.42,17.09-15.53,17.08-2.47,0-1.14-1.61-1.47-2.08-.23-.33-1.51-.52-1.85-1.68-1.44-4.86,5.3-5.43,6.85-9.31-8.96.88-14.17-3.3-13.04-12.55ZM516.25,194.24c.29-.31,6.42-3.7,7.37-4.12,14.58-6.47,41.9-6.07,57.75-3.99,2.91.38,18.63,3.08,18.63,6.37v14.5c-8.05-1.32-22.09,1.76-29.33.04-.8-.19-1.39-2.18-1.67-3.04-4.15.22-15.66-1.16-18.08,2.67-2.36,3.74-.67,19.3.08,24.33,10.15,2.19,21.41,2.92,19-11h30v16c1.27-4.26,1.18-7.46.99-12.01h5.01v19.51c0,3.28-13.83,6.1-16.62,6.38-13.92,1.37-53.34,2.53-64.18-5.53-1.57-1.16-1.1-2.27-1.2-2.35-4.85-4.05-8.95-5.49-9.91-12.59-.7-5.13-.66-32.16,2.16-35.17ZM501.14,122.64c.71-2.17,7.79-3.77,9.41-1.65.68.9.21,2.31.45,3.01,1.76,5.07,3.38,21.74,1.86,26.36-.64,1.95-3.61,1.95-5.41,1.73-2.5-.31-1.11-1.59-1.45-2.09-.39-.57-1.6-.42-1.99-2.47-1-5.41,1.08-13.85.06-18.98-.16-.81-5.15.81-2.93-5.91ZM487.01,141.99c.36.37-.36,3.42-.01,4.01.05.09,1.73-.41,2.01.66,1.29,4.9-1.22,7.09-6.07,5.95-2.43-.58-1.67-2.29-1.94-2.61-.1-.12-1.71.46-2.02-.66-.37-1.37-.27-6.05.95-6.9.91-.63,6.83-.7,7.08-.45ZM455.01,119c6.86,3.06,18.83-.74,25.33.98,1.11.3.53,1.89.66,2.02s1.73-.45,2.01.66c.25.94.22,5.58-.15,6.2-1.12,1.83-8.86-.44-8.86,3.64v18c0,1.55-6.85,3.09-9-.5-2.02-3.38-.86-16.09-1-21-1.88.06-4.06.1-5.8-.67-1.62-.71-1.01-2.11-1.2-2.33-.1-.12-1.73.46-2.02-.66-.45-1.73.3-4.4.03-6.34ZM431.5,123c2.3-4.84,18.68-5.44,21.05.03.98,2.26-.75,2.68-1.55,3.97-.21.34.6,1.8-.61,2.07-3.04.69-7.7-3.27-9.39.93,2.23,1.03,8.22,4.47,10,6,4.81,4.13,3.79,12.07-1.45,15.05-2.74,1.57-10.42,1.38-13.52.43-.59-.19-.79-1.34-1.03-1.48-2.86-1.71-4.34-2.45-4-7,2.89-.88,13.05,3.57,13.04-1.52,0-3.62-10.53-4.07-12.53-8.5-.9-2.01-.95-8.01-.01-9.98ZM405.44,120.94c.92-1.33,19.59-1.38,20.37-.7.48.41.06,1.63.19,1.76.12.12,1.73-.45,2.02.66,3.13,12.16-8.62,3.21-13.02,8.34,2.41.05,6.43-.5,8.4.14,1.63.53,1.46,2.77,1.6,2.86.46.29,2.73-.66,3.06.53,2.98,10.72-9.39,3.48-13.06,8.47,4.71,1.89,7.89.06,11.34.98,1.11.3.53,1.89.66,2.02.12.12,1.73-.45,2.02.66.38,1.51-.22,3.68-.02,5.34-5.52-.96-15.48,1.29-20.35.03-1.12-.3-.53-1.93-.65-2.03-.64-.55-2.49.4-3.02-2.47-.46-2.5-.3-25.5.46-26.59ZM320.99,186.99l41.38-.03c1.14.21.5,1.94.63,2.04,1.12.87,4.59,1.77,4.84,2.16.3.47.47,10.09.2,11.17-.29,1.21-3.08,1.17-4.07,2.13-2,1.95-1.14,22.42.03,26.54,3.99.93,17.17,2.76,18.81-2.69.67-2.24.54-27.21-.28-28.37-.56-.81-2.51-.63-3.58-1.65-2.94-2.77-1.77-8.59-1.95-12.29h35.5c2.61,0,2.92,4.25,4.5,5,1.37.65,4.25-.16,5,3,.51-.69,5.88-4.04,7.01-4.49,14.07-5.7,53.25-5.46,67.77-.79,4.61,1.48,8.26,3.06,9.22,8.28,7.3-.19,4.57,7.93,5,13h-27.5c-1.42,0-4.48-2.99-3.5-4.99.92-.91,20.81,1.03,24.36-.15,2.28-.76,1.79-4.82,1.64-6.86-1.99.85-.53,5.53-.99,6.01-.89.92-22.33.16-25.58.03-1.93-.07-3.54-.99-4.43-1.04-2.18-.13-3.99-.98-6.34-.93-4.82.11-9.91,2.61-14.66,2.93,14.24,6.6,37.45,2.39,51.03,14.51.78.7.75,2.25.97,2.49.18.19,2.05.32,3.04,1.41,4.83,5.28,3.78,15.91-1.69,20.44-12.26,10.16-69.35,8.78-81.67-.81-.94-.73-.59-1.96-.68-2.04-1.61-1.41-5.15-2.54-5.81-4.69-1.01-3.28.32-8.7-.19-12.31h26.5c.44,0,5.85,1.6,6.07,1.92.98,1.38.1,4.65.43,5.09.21.27,1.75-.63,2.44-.49,1.3.27,2.21,1.38,4,1.53,4.64.38,22.89,1.94,17.56-7.05.6,2.86-1.64,2.14-3.5,2.05-13.11-.69-34.49-5.13-44.5-13.05-4.17-3.3-7.77-4.7-8-11-8.25,2.09-4.46,16.26-4.96,23.54-.92,13.42-4,19.21-17.79,22.21-15.71,3.41-48.84,2.94-61.25-7.75-3.42-2.95-7.62-6.45-8.56-10.94-1.54-7.38,1.46-25.68-1.87-30.13-1.09-1.46-4.4-2.86-4.59-3.64-.6-2.48.45-6.53.01-9.3ZM197.5,250c-3.35-.61-3.08-4.87-1.94-5.01,9.53-.81,20.75,1.11,30.04.06,1.39-.15,1.42-.07,2.4-1.05-4.62-1-35.7,1.31-37.01.01-.33-.33-.17-8.33.17-9.35.9-2.63,5.25-1.4,5.9-8.1.39-3.97.4-25.02-.99-27.13-1.1-1.68-4.33-2.39-4.91-4.09-.84-2.47.23-6.59-.17-9.35,13.84,1.4,31.17-1.83,44.56-.05,2.88.39,3.32,1.64,5.45,3.06.62.42,1.68.16,3.01,1.45,3.45,3.33,7.99,12.65,8.99,17.55,2.97-.43,11.4-19.96,15.71-21.79l43.65-.07c2.65.87,1.44,5.55,1.64,7.86.62-.98,1.16-1.68,1.05-2.95,5.43-1.43,6.26,7.94,4.44,10.95-1.02,1.69-4.77,1.83-5.46,5.53-1.22,6.44.09,19.11-.03,26.47-.06,3.32.04,6.68,0,10,2.13-2.15.46-6.44,1.01-7,.37-.38,2.74-.14,3.51.98,1.43,2.07-.03,9.16.48,12.02h-43v-5.01c11.27-.96,24.59,1.3,35.6.06,1.39-.15,1.42-.07,2.4-1.05-5.3-1.16-41.48,1.52-43.01,0-.67-.66,1.25-7.62-.99-9-2.89,5.03-4.51,14.83-11.56,15.94-5.07.8-13.67,1.04-13.44-5.93,3.33-.56,9.77,1.23,12-1.01-5.1-.29-10.47.83-15.36-.91l-13.64-24.09c.58,3.64.06,9.98,0,14-.05,3.65.04,7.35,0,11,1.86-1.88.81-4.52,1-7,6.3-1.89,6.43,11.86,3.36,12.86-10.29-1.05-25.17,1.9-34.86.14ZM453.5,432.06c-2.07,0-14.84-1.14-15.51-1.55-1.23-.73-1.74-3.12-1.99-4.51-9.2-1.44-5.23-10.21-6-17-6.16,1.35-18.76-3.92-18,5,.27,3.19,1.85,7.19,1,11,2.14-2.15.16-8,1.51-8.01,5.97-.7,5.69,13.94,2.85,14.87-6.25-.83-39.54,1.74-42.42-.29-1.42-1.01-.92-3.98-.94-5.57-2.37.02-4.52-1-5-1-1.96-.01-5.28,2.15-7.78,2.72-20.46,4.64-49.62,7.17-69.76.32-4.59-1.56-7.45-2.68-9.46-7.04-1.54-3.34-.56-.35-1.78-1.27-2.46-1.87-4.86-5.01-5.24-8.21-.73-6.17-.85-26.06.08-31.96.47-2.99,2.26-4.73,4.61-6.39,12.68-8.99,47.5-7.99,62.7-6.04,2.63.33,18.63,2.75,18.63,5.37v14.5h-20c.15.01,1.11.97,2.42,1.04,3.11.19,14.78.53,16.94-.18,3.46-1.14.36-9.15,2.11-11.89,1.52-2.38,4.53,1.11,4.53,1.53v15.5c-6.57.82-14.23-.59-20.59-.04-1.32.11-2.28,1.04-2.41,1.04,3.14,2.72,14.73-.69,16.56,1.94,1.71,2.44-.36,18.86.44,23.06,2.85-3.25-2.36-27.54,6.07-21.57,2.74,1.94-.89,22.62,1.93,26.57.24-2.85-.66-6.32.52-8.99,1.18-2.66,5.24-2.84,6.02-3.97.81-1.19.9-25.39.54-28.57-.34-2.89-5.19-2.68-6.56-4.49-1.55-2.07-1.51-8.29-1.52-10.98h69.5c8.48,0,19.15,4.41,25.5,10,5.47,4.82,8.71,10.27,5.07,17.57-1.6,3.2-7.12,5.33-7.1,7.93.01,1.57,6.82,8.47,4.03,13.5.07.09.98,1.89,1,2,7.54-1.42,4.38,8.23,6,13-6.22-.9-12.54,1.06-18.5,1.06ZM518,415c.01.66.02,1.34,0,2,8.43-.05,4,7.77,5.01,14.01-13.2-1.51-30.79,1.99-43.43.01-1.26-.2-.31-3.82-.58-5.02-1.99-.07-4.01.06-6.01,0-.5-.49.16-9.74,1-11.26.82-1.49,3.53-1.2,4.92-3.34,1.56-2.42,1.63-24.01,1.03-27.84-.91-5.69-5.96-4.72-6.78-7.22-.83-2.5.22-6.57-.17-9.35h41.52c1.83-.26,3.47,3.72,3.49,5.01,6.22-1.31,6.08,7.14,5.05,11.34-.37,1.49-6.05.89-6.05,4.16v17c0,2.4.97,6.91,1,10.5ZM713,429.5c0,.83-2.42,1.77-3.45,1.55l-83.97-.03-.58-5.02c-1.99-.07-4.01.06-6.01.01v-11.01c0,.13-.95,1.09-1.04,2.41-.28,4.48.3,9.12.06,13.6l-86.05-.47.04-4.54c-2.79-1.81-6.13,2.03-6.99-2.5-1.91-10.04,3.74-8.93,5.5-12.49.74-1.48,1.01-26.77.49-29.51-.67-3.57-4.68-2.67-5.04-4.16-.65-2.67.53-7.33.04-10.34h38.5c3.89,0,3.9,4.25,5.5,5,3.26,1.52,5.21.24,5.05,6.46-.2,7.41-5.81,7.02-6.09,8.2-1.5,6.22,1.19,18.38.04,25.34,3.64.1,12.58.8,14.99-1.51,3.11-3.01.99-13.49,3.51-13.49h24c4.49,0,1.53,6.9,1.46,9.46-.17,6.17.2,12.38.04,18.54,2.47-2.47.23-17.63,1-22,6.69-1.42,5.27,6.23,5,11,1.49.23,6-2.57,6-3.5v-29c0-1.59-5.66-3.36-5.84-3.65-.94-1.5.34-8.46-.17-10.86h44.02c-.12,1.98.16,4.04-.01,6.01l5-1c-.62,3.39.85,9.5.06,12.39-.38,1.4-5.74.82-6.12,2.22-1.62,5.94,1.32,19.51.06,26.39,12.46.76,19.86-.49,18-15h24.5c.75,0,2.26,2.43,2.47,3.53,1.26,6.58-.86,16.47.03,23.47,2.45-2.45.24-16.73,1.01-21,1.44-.7,4.99,1.56,4.99,2.5v23ZM712,316h-17.01c.11,1.97-.15,4.03.01,6,.11,1.29.91,2.72,1,4,7.08,1.45,4.69,8.7,5.01,14.01-5.74-.73-41.97,1.33-43.59-.96-1.01-1.42.3-3.59.58-5.05-1.99-.07-4.01.06-6.01.01v-11.01c.01.13-1.03,1.11-1.03,2.42-.01,4.86.09,9.74.05,14.59h-89.51c-3.27-.37-3.01-3.6-1.5-6.01h-6c-.11.94-1.83,3.07-1.01,5-4.82-.82-36.45,1.14-37.88-.11-.4-.35-.64-3.88-1.11-4.89-3.04-.46-12.28-15.31-15-19-4.07-.08-2.67,4.9-5,7,1.51,1.52,1.81,2.93,2,5,7.96-.43,4.28,6.33,5.01,12.01-7.56-1.16-23.1,2.12-29.21-1.33-1.9-1.08-2.18-1.36-1.8-3.68h-15c.27,2.47.5,5.82-2.5,6-12-1.08-26.38,1.44-38.06.06-3.78-.45-4.24-2.53-4.44-6.06-1.66-.08-3.35.06-5.01.01.48-2.69-.88-9.16.46-11.05,1.11-1.55,3.02.35,4.55-3.96-2.69,1.41-5.39,2.7-8.5,3-4.04.39-8.16-.7-11.5-1,2.61,1.65,2.63,2.24,3,5,8.17-1.3,4.1,9.01,5.01,14.01h-89.01s1-6.01,1-6.01c-3.71-.11-6.96,1.46-6-3-.05.15-1.84.92-2.44,2.01-.69,1.27-2.58,5.87-3.23,6.03-3.21.77-21.38,1.66-19.33-5.03,2.88-.56,11.73,1.19,13-1.01-4.45-.61-11.86,1.28-15.57-.93-3.63-2.17-10.03-19.48-14.43-23.07.25,3.27-1.18,9.84-1,13,.06.96,3.33,5.88,2.27,9.32.69-1.71,1.2-2.98.74-5.32,6.28,1.62,3.46,7.95,4,13.01-11.7-1.34-27.23,1.76-38.43.01-1.26-.2-.31-3.82-.58-5.02-2.77-.16-5.34.97-6-2.5-.23-1.2-.2-9.04.11-9.39,1.29-1.47,6.2,1.13,6.95-6.55.49-5.01.74-21.55-.09-26.03-.83-4.5-6.12-4.12-6.84-6.16-1.24-3.54-1.02-8.89,3.32-9.42,5.55-.67,42.81-.59,46.29.8,1.1.44,3.04,2.34,4.26,3.25.29.22,1.38.05,2.43,1.02,3.13,2.89,7.86,11.62,8.57,15.98,5.07-6.67,8.48-14.28,13.67-20.83l45.66-.21c1.23.29,1.72,3.83,1.67,5.04,5.85-1.18,5.66,4.23,5.05,8.55-.7,4.86-3.46,3.6-5.12,5.88-2.57,3.5-.27,21.85-.09,27.14.04,1.17-.84,2.1-.84,2.43,0,1.27.59,8.73,2.52,5.02.77-1.49.13-3.55.99-5.01.59-1,2.63-1.37,3.53-2.47.7-.86,6.19-10,7.24-11.81,6.2-10.77,11.05-23.49,16.88-34.57,12.25.88,27.51-1.72,39.39-.21,3.94.5,3.01,2.02,4.45,3.05.56.4,1.83.15,3.01,1.45,3.94,4.32,21.62,37.7,22.99,43.55.45,1.92.87,2.67,1,5l3-1c-.74,2.15.62,3.58,1,5,.32-2.51-.61-6.07.16-8.34.5-1.46,2.83-1.86,3.74-3.26,1.55-2.38,1.65-25.78,1.15-29.95-.65-5.56-5.95-3.26-6.92-6.08-.82-2.41.27-6.65-.14-9.38h42.51c2.82.23,2.66,2.66,2.5,5.01,7.41-1.11,6.73,3.46,5,9,2.73-3.18,7.42-12.06,8.49-13.01,3.01-2.7,29.86.01,35.84-1.03,1.22.29,1.76,3.85,1.67,5.04,1.01,1.13,4.65.74,4.96,1.04.39.38.29,10.45-.06,10.86-.36.42-8.27,1.86-10.58,2.92-5.26,2.41-10.55,7.84-15.32,11.18,3.22,3.47,11.07,12.98,14.47,15.03,4.65,2.82,7.05-.52,7.53,6.97l5,1c.17-1.65-.39-3.27.49-4.99,1.11-2.15,4.8-1.99,5.49-5.53.81-4.12.62-23.4.08-28.04-.64-5.41-5.04-3.5-5.95-4.55-.73-.83.29-8.86-.12-10.9l89.4-.05c.73.2,1.52,4.13,1.61,5.06,1.42-.06,5.7.23,6.04,1.66,1.1,4.59-.89,13.21-.04,18.34h-22c.73,4.83,2.86,8.88,2,14l-33.01.99v6.01c2.32.1,15.3.41,15.91-.11.64-.55.4-5.59,1.71-5.95,1.57-.43,24.71-.36,26.89.06,2.89.54,2.26,1.72,2.5,4,2.86-.38,6.71.76,7,4,7.9.24,4.85-15.64,4.96-21.54.08-4.2,2.63-8.6-.06-12.86-1.12-1.77-4.06-2.17-4.72-4.28-.81-2.64.16-6.48-.18-9.32h69.5c1.35,0,8.12,1.55,9.94,2.06,4.45,1.27,12.61,4.95,13.56,9.94,11.42,2.26,6.09,22-4,22,.19,1.31.9,2.72,1,4,6.02,1.17,5.24,6.48,6,11,.14.82.91,1.81,1,3,8.38-.61,4.02,8.19,5,14h-30.5c-2.05,0-6.48-3.22-5.5-6-9.11-1.24-5.13-11.58-6-18ZM795.01,210.01l-24,1c-.11,3.22,3.4,2.27,4.54,5.94.82,2.63.39,5.37.45,8.05,2.49-.01,11.83-1.15,12.54-.05,1.72,2.66-.31,15.99.46,20.05,2.41-.79.1-15.14,1-16,.58-.55,5,.23,5,1.5v19.5h-90l1-5c-2.44.06-4.47,2.73-6-1-.04,1.37.51,5.85-.58,6.02h-85.84l-.58-5.02c-2.54-.19-4.37.75-5-2.49-.29-1.51-.29-6.49.16-7.85.81-2.48,5.18-1.64,5.84-5.16.52-2.74.26-27.98-.49-29.51-.88-1.79-4.59-2.28-5.32-4.68-.81-2.65.14-6.47-.2-9.32h39.51c2.82.26,2.26,1.98,2.5,4.01,7.39-1.7,7.41,6.83,5.34,11.77-.88,2.12-3.07,1.41-4.1,2.45-2.55,2.57-1.19,23.1-.24,27.78,3.94.18,11.78.83,14.56-1.94,3.4-3.41-.58-11.72,3.08-12.92,1.61-.53,21.59-.56,23.86-.14,5.52,1.02.27,16.01,3.5,20,.05-2.34-.53-14.48,0-15,.35-.34,3.82-.14,4.56.94.8,1.15.5,5.61.52,7.47.01.81.92,1.5.92,1.59,1.09-.41,3.74-.41,4.04-1.67.42-1.74.42-27.91,0-29.66-.34-1.41-6.01-1.79-6.88-4.33-.91-2.65.29-7.35-.16-10.34h90v19c2.18-1.01.46-10.35,1-13,8.73-1.44,3.73,12.33,5.01,18.01Z"/>
  <path class="st2" d="M450,327c-.13-2.33-.55-3.08-1-5-2.77-1.47-4.21-4.18-5.8-6.69-7.47-11.78-14.26-25.69-20.2-38.31-1.44-1.03-.51-2.55-4.45-3.05-11.88-1.51-27.14,1.09-39.39.21-5.83,11.08-10.68,23.8-16.88,34.57-1.05,1.81-6.54,10.95-7.24,11.81-.9,1.1-2.94,1.47-3.53,2.47-.86,1.46-.22,3.52-.99,5.01-1.93,3.71-2.52-3.75-2.52-5.02-2.47-.27-5.54-3.19-5.98-5.52-.76-4.04-.66-23.64-.07-28.03.82-6.07,6.73-3.01,7.05-10.45.05-1.21-.44-4.75-1.67-5.04l-45.66.21c-5.19,6.55-8.6,14.16-13.67,20.83-.22.29.7,2.9-1.49,1.99-2.38-.98-9.09-15.47-9.51-18.99-1.22-.91-3.16-2.81-4.26-3.25-3.48-1.39-40.74-1.47-46.29-.8-4.34.53-4.56,5.88-3.32,9.42.72,2.04,6.01,1.66,6.84,6.16.83,4.48.58,21.02.09,26.03-.75,7.68-5.66,5.08-6.95,6.55-.31.35-.34,8.19-.11,9.39.66,3.47,3.23,2.34,6,2.5,11.04.63,22.3-.5,33.37.04,1.23-.24.43-1.53.63-2.04.09-.24.19-.46.27-.68,1.06-3.44-2.21-8.36-2.27-9.32-1.49.46-6-4.12-6-4.5v-15c0-4.42,6.65,1.88,7,6.5,4.4,3.59,10.8,20.9,14.43,23.07,3.71,2.21,11.12.32,15.57.93.92-1.58,1.64-4.53,2.83-6.67,2.35-4.2,11.52-21.39,14.17-23.33.43-1.57,2.44-3.17,3-1,.02.66-.03,1.33,0,2,.15,3.64.6,11.79-.66,14.78-.35.84-4.92,3.78-6.34,4.22-1.28,3.35-.43,6.42-1,8-.96,4.46,2.29,2.89,6,3,6.31.19,34.21,1.03,37.99-.51,1.01-.42,1.75-2.13,2.51-2.49.74-.34.27,1.51,1.16,2.02,2.7,1.56,31.85,1.45,36.85.98,5.51-.52,5.22-2.55,4.49-8-.37-2.76-.39-3.35-3-5-3.64-.32-6.23-.17-6-4.99,6.81,1.17,19.34-1.59,25.34-.06.5.13,1.64,2.39,1.64,2.57-.01.32-.94.36-.98.48-1.53,4.31-3.44,2.41-4.55,3.96-1.34,1.89.02,8.36-.46,11.05,1.66.05,3.35-.09,5.01-.01,13.27.6,26.72-.45,40.01.01-.1-2.32.12-4.69-.01-7.01ZM404,307c-2.32.06-4.67-.07-7,0-1.75.05-8.71.99-7.98-1.47.41-1.39,6.8-13.18,7.52-13.49,3.13-1.32,3.45,4.67,4.46,6.96.99,2.27,4.01,4.39,3,8Z"/>
  <path class="st2" d="M308.49,199c-.76,1.58-1.01,27.67-.47,30.48.56,2.88,3.3,4.11,5.98,4.52-.06,3.32.04,6.68,0,10-5.3-1.16-41.48,1.52-43.01,0-.67-.66,1.25-7.62-.99-9,2.03-3.53,5.45-3.18,6.78-5.72,1.31-2.5,2.33-17.3-.28-17.26-3.78.05-15.89,28.35-19.5,31.98-5.1-.29-10.47.83-15.36-.91l-13.64-24.09c-.7-4.35-6.18-11.46-7.01-2.51-.65,7.16-1.89,15.72,7.01,16.51-.05,3.65.04,7.35,0,11-4.62-1-35.7,1.31-37.01.01-.33-.33-.17-8.33.17-9.35.9-2.63,5.25-1.4,5.9-8.1.39-3.97.4-25.02-.99-27.13-1.1-1.68-4.33-2.39-4.91-4.09-.84-2.47.23-6.59-.17-9.35,13.84,1.4,31.17-1.83,44.56-.05,2.88.39,3.32,1.64,5.45,3.06,1.2,3.66,8.16,19.56,12,19,2.97-.43,11.4-19.96,15.71-21.79l43.65-.07c2.65.87,1.44,5.55,1.64,7.86-.14.22.28,1.19-.22,1.74-.95,1.05-4.25,1.12-5.29,3.26Z"/>
  <path class="st2" d="M749,326c-.09-1.19-.86-2.18-1-3-7.6-1.22-5.56-5.5-6-11-.1-1.28-.81-2.69-1-4-1.73,0-4.44-1.64-6.03-2.53-.9-.5-2.69-.12-1.96-1.96,1.39-3.52,10.53-3.49,11.93-11.08.27-1.44.33-5.01.06-6.43-.95-4.99-9.11-8.67-13.56-9.94-1.82-.51-8.59-2.06-9.94-2.06h-69.5c.34,2.84-.63,6.68.18,9.32.66,2.11,3.6,2.51,4.72,4.28,2.69,4.26.14,8.66.06,12.86-.11,5.9,2.94,21.78-4.96,21.54.03.32.01.67,0,1v11.01c1.99.05,4.01-.08,6-.01,12.62.44,25.37-.33,38.01.01-.14-2.65.18-5.38-.01-8.01-.09-1.28-.89-2.71-1-4-5.73.75-10.05-10.32-5.36-11.86,1.81-.59,15.4-.43,17.65.07,3.03.68,4.31,2.87,4.71,5.79.87,6.42-3.11,16.76,6,18,9.37,1.28,21.33-.95,31.01.01-.15-2.64.2-5.38-.01-8.01ZM695,298c-1.99-.07-4.01.06-6.01.01v-12.01h20.51c2.39,0,4.38,3.59,4.5,6,.44,8.54-12.38,6.23-19,6Z"/>
  <path class="st2" d="M466,418c-.02-.11-.93-1.91-1-2-.97-1.3-4.12-2.42-4.8-4.71-.83-2.8.68-7-.7-9.29-1.27-2.09-10.79-4.86-7.89-7.07.98-.74,3.66-1.27,5.32-2.5,5.83-4.31,6.12-8.7,6.07-15.43-6.35-5.59-17.02-10-25.5-10h-69.5c.01,2.69-.03,8.91,1.52,10.98,1.37,1.81,6.22,1.6,6.56,4.49.36,3.18.27,27.38-.54,28.57-.78,1.13-4.84,1.31-6.02,3.97-1.18,2.67-.28,6.14-.52,8.99v1c.48,0,2.63,1.02,5,1,11.21-.09,25.97,1.25,36.6.05,1.39-.15,1.42-.07,2.4-1.05.85-3.81-.73-7.81-1-11-6.01.1-8.63-10.23-3.3-11.8,2.76-.81,13.18-.44,16.14.46,3.62,1.1,4.75,2.78,5.16,6.34.77,6.79-3.2,15.56,6,17,8.8,1.37,20.81-1.01,30,0-.89-1.85.17-6.98,0-8ZM409,391c-5.3-1.98-.81-6.85-2-12h17.5c2.66,0,5.5,2.56,6.5,5,4.44,10.86-16.07,9.21-22,7Z"/>
  <path class="st2" d="M547.36,333.86c-2,.67-30.11.63-33.36.14-3.04-.46-12.28-15.31-15-19-1.05-1.43-1.78-5.41-3.99-6.51-6.68-3.31-7.15,4.78-5.57,9.57,1.03,3.12,3.4,2.77,4.56,3.94,1.51,1.52,1.81,2.93,2,5s.6,6.12-1.64,6.86c-3.34,1.11-19.38.14-24.36.14h-15c-.02-.16-.76-2.09-1-3,.32-2.51-.61-6.07.16-8.34.5-1.46,2.83-1.86,3.74-3.26,1.55-2.38,1.65-25.78,1.15-29.95-.65-5.56-5.95-3.26-6.92-6.08-.82-2.41.27-6.65-.14-9.38h42.51c2.82.23,2.66,2.66,2.5,5.01-.5,7.25-5.72,5.09-6.81,8.7-.87,2.9.19,7.17-.18,10.3,5.06-2.07,8.54-5.98,11.99-10,2.73-3.18,7.42-12.06,8.49-13.01,3.01-2.7,29.86.01,35.84-1.03,1.22.29,1.76,3.85,1.67,5.04-.6,7.77-6.86,6.06-12.68,8.82-1.54.73-13.41,8.47-13.86,9.17-2.06,3.22,3.8,6.14,5.54,8.01,3.22,3.47,11.07,12.98,14.47,15.03,4.65,2.82,7.05-.52,7.53,6.97.13,2.05.66,6.1-1.64,6.86Z"/>
  <path class="st2" d="M645,318c.35,3.36,0,7.5,0,11v4c-.77.74-1.08,1.23-2.4,1.05-27.53-.09-55.08-.05-82.6-.05h-6c.23-1.9-.2-4.07,0-6,.17-1.65-.39-3.27.49-4.99,1.11-2.15,4.8-1.99,5.49-5.53.81-4.12.62-23.4.08-28.04-.64-5.41-5.04-3.5-5.95-4.55-.73-.83.29-8.86-.12-10.9l89.4-.05c.73.2,1.52,4.13,1.61,5.06.21,2.25.45,12.64,0,14-5.98-.12-12.02.16-18,0-.67-.02-1.33.02-2,0-3.91-.12-7.55-.89-11-1,.89-10.54-16.26-4.41-23.01-6.01.46,2.76-.62,6.95-.03,9.38.29,1.24,1.53.43,2.04.63,8.05,3.21,22.77-.64,31.43.94,1.25.23-.06,3.58,1.57,4.06.05,1.43.36,7-1.5,7h-33.5c.67,9.37-3.47,11.55,7,12,2.31.1,15.29.41,15.9-.11.64-.55.4-5.59,1.71-5.95,1.57-.43,24.71-.36,26.89.06,2.89.54,2.26,1.72,2.5,4Z"/>
  <path class="st2" d="M789,245c-27.62.52-55.39-.7-83,0-2.44.06-4.47,2.73-6-1,.15-4.57,1.95-10.48,2-12,1.09-.41,3.74-.41,4.04-1.67.42-1.74.42-27.91,0-29.66-.34-1.41-6.01-1.79-6.88-4.33-.91-2.65.29-7.35-.16-10.34h90v19c-.22.1-.64-.05-1,0-8.88,1.18-19.92-.75-29-1,.01-2.02-.65-5.15-2.66-5.84-1.38-.47-17.3-.48-18.7-.02-2.56.84-1.96,7.61-.76,9.28.96,1.31,4.52.36,6.12.58,3.42.47,24.85,1.99,26,1,2.02,2.76.66,6.72,1,10h-32.5c-2.47,0-1.69,9.93.5,12,1.84,1.74,19.84,1.46,20.84-.17.68-1.09-.26-4.35,1.16-5.83,5.32-.04,10.68.02,16,0,2.49-.01,11.83-1.15,12.54-.05,1.72,2.66-.31,15.99.46,20.05Z"/>
  <path class="st2" d="M361,419c-1.27,1.45-11.38,3.99-13.96,4.54-21.63,4.58-43.77,2.83-65.04-2.54-1.54-3.34-.56-.35-1.78-1.27-2.46-1.87-4.86-5.01-5.24-8.21-.73-6.17-.85-26.06.08-31.96.47-2.99,2.26-4.73,4.61-6.39,12.68-8.99,47.5-7.99,62.7-6.04,2.63.33,18.63,2.75,18.63,5.37v14.5h-20c-.66-.04-1.34.04-2,0-2.41-.14-4.77-.92-6-1,.26-9.73-23.98-8.35-26.51-4.01-.39.66-1.36,7.96-1.48,9.52-.29,3.85-.45,15.65,1.51,18.51.79,1.14,1.98.7,2.48.98,5.22,2.97,23.35,4.41,23-4-.05-1.23-.72-3.59-2-4-4.62-2.96-10.05,2.31-10.06-5.53,0-5.45,10.91-3.45,15.59-3.52,2.4-.03,4.11.14,6.47.05.67-.02,1.33.02,2,0,3.14,2.72,14.73-.69,16.56,1.94,1.71,2.44-.36,18.86.44,23.06Z"/>
  <path class="st2" d="M490.2,242.7c-20.66,5.18-44.47,1.62-65.2-1.7-1.61-1.41-5.15-2.54-5.81-4.69-1.01-3.28.32-8.7-.19-12.31h26.5c.44,0,5.85,1.6,6.07,1.92.98,1.38.1,4.65.43,5.09.21.27,1.75-.63,2.44-.49,1.3.27,2.21,1.38,4,1.53,4.64.38,22.89,1.94,17.56-7.05-1.63-2.74-4.11-2.84-6.96-3.54-12.96-3.16-27.91-4.06-41.04-7.46-4.17-3.3-7.77-4.7-8-11-.08-2.06.88-7.49,2-9,.51-.69,5.88-4.04,7.01-4.49,14.07-5.7,53.25-5.46,67.77-.79,4.61,1.48,8.26,3.06,9.22,8.28.06.32-.02.67,0,1-1.99.85-.53,5.53-.99,6.01-.89.92-22.33.16-25.58.03-1.93-.07-3.54-.99-4.43-1.04,1.09-9.28-22.64-6.59-24.55-3.02-1.84,3.43,1.46,4.05,3.55,5.02,14.24,6.6,37.45,2.39,51.03,14.51.78.7.75,2.25.97,2.49,1.38,13.01-4.02,17.75-15.8,20.7Z"/>
  <path class="st2" d="M417,191c-2.71.88-1.57,3.68-2.48,4.99-1.01,1.45-4.47.89-5.33,3.7-2.67,8.74,2.94,27.03-3.19,35.81-9.68,13.88-54.97,9.41-70,5.5-3.42-2.95-7.62-6.45-8.56-10.94-1.54-7.38,1.46-25.68-1.87-30.13-1.09-1.46-4.4-2.86-4.59-3.64-.6-2.48.45-6.53.01-9.3l41.38-.03c1.14.21.5,1.94.63,2.04,2.64,8.57-5.12,7.18-5.98,11.52-.7,3.59-.59,21.08-.07,25.03.64,4.8,3.26,4.57,7.05,5.45,3.99.93,17.17,2.76,18.81-2.69.67-2.24.54-27.21-.28-28.37-.56-.81-2.51-.63-3.58-1.65-2.94-2.77-1.77-8.59-1.95-12.29h35.5c2.61,0,2.92,4.25,4.5,5Z"/>
  <path class="st2" d="M568.09,199.42c-3.18-4-20.23-3.1-22.99,1.18-1.58,2.46-1.66,22.18-.89,25.69,1.08,4.87,3.49,4,6.79,4.71,10.15,2.19,21.41,2.92,19-11h30v16c-.33,1.1.34,2.07-.99,3.48-5.71,6.06-43.37,6.02-52.5,5.51-7.23-.4-15.23-2.28-22.51-2.99-4.85-4.05-8.95-5.49-9.91-12.59-.7-5.13-.66-32.16,2.16-35.17.29-.31,6.42-3.7,7.37-4.12,14.58-6.47,41.9-6.07,57.75-3.99,2.91.38,18.63,3.08,18.63,6.37v14.5c-8.05-1.32-22.09,1.76-29.33.04-.8-.19-1.39-2.18-1.67-3.04-.38-1.16.51-2.8-.91-4.58Z"/>
  <path class="st2" d="M613,425c-.98.98-1,.9-2.4,1.05-24.34,2.71-53.72-2.13-78.6-.05-2.79-1.81-6.13,2.03-6.99-2.5-1.91-10.04,3.74-8.93,5.5-12.49.74-1.48,1.01-26.77.49-29.51-.67-3.57-4.68-2.67-5.04-4.16-.65-2.67.53-7.33.04-10.34h38.5c3.89,0,3.9,4.25,5.5,5-1.92,1.2-1.56,4.98-2.23,5.78-1.04,1.26-5.09-.01-5.82,5.67-.38,2.95-.42,25.18.18,26.92,1.02,2.98,5.61,1.6,6.87,1.63,3.64.1,12.58.8,14.99-1.51,3.11-3.01.99-13.49,3.51-13.49h24c4.49,0,1.53,6.9,1.46,9.46-.17,6.17.2,12.38.04,18.54Z"/>
  <path class="st2" d="M707,425c-.77.77-1.09,1.22-2.4,1.05-26.49-.79-53.14.88-79.6-.05-1.99-.07-4.01.06-6.01.01v-11.01c.02-.33-.01-.67.01-1,1.49.23,6-2.57,6-3.5v-29c0-1.59-5.66-3.36-5.84-3.65-.94-1.5.34-8.46-.17-10.86h44.02c-.12,1.98.16,4.04-.01,6.01-.66,7.69-2.89,3.43-6.03,6.47-2.48,2.39-.11,26.7-1.01,31.9.22,1.23,1.59.43,2.04.63.61.27,1.01.88,2,1,.65.08,1.34-.04,2,0,12.46.76,19.86-.49,18-15h24.5c.75,0,2.26,2.43,2.47,3.53,1.26,6.58-.86,16.47.03,23.47Z"/>
  <path class="st2" d="M696.01,245.01c-27.04-1.51-56.23,2-83.01-.01-2.54-.19-4.37.75-5-2.49-.29-1.51-.29-6.49.16-7.85.81-2.48,5.18-1.64,5.84-5.16.52-2.74.26-27.98-.49-29.51-.88-1.79-4.59-2.28-5.32-4.68-.81-2.65.14-6.47-.2-9.32h39.51c2.82.26,2.26,1.98,2.5,4.01,1.14,9.7-4.9,4.92-5.98,10.52-.8,4.15-.64,23.43-.07,28.03.6,4.86,3.07,3.27,7.05,3.45,3.94.18,11.78.83,14.56-1.94,3.4-3.41-.58-11.72,3.08-12.92,1.61-.53,21.59-.56,23.86-.14,5.52,1.02.27,16.01,3.5,20-.06,2.66.05,5.35.01,8.01Z"/>
  <path class="st2" d="M516.36,425.86c-12.42-.06-24.96.58-37.36.14-1.99-.07-4.01.06-6.01,0-.5-.49.16-9.74,1-11.26.82-1.49,3.53-1.2,4.92-3.34,1.56-2.42,1.63-24.01,1.03-27.84-.91-5.69-5.96-4.72-6.78-7.22-.83-2.5.22-6.57-.17-9.35h41.52c1.83-.26,3.47,3.72,3.49,5.01.12,6.55-5.93,5.83-6.81,8.69-.85,2.76-.63,22.95-.25,26.87.44,4.6,2.47,6.49,7.06,7.44.01.66.02,1.34,0,2-.08,2.41.97,8-1.64,8.86Z"/>
  <path class="st1" d="M420,203c-8.25,2.09-4.46,16.26-4.96,23.54-.92,13.42-4,19.21-17.79,22.21-15.71,3.41-48.84,2.94-61.25-7.75,15.03,3.91,60.32,8.38,70-5.5,6.13-8.78.52-27.07,3.19-35.81.86-2.81,4.32-2.25,5.33-3.7.91-1.31-.23-4.11,2.48-4.99,1.37.65,4.25-.16,5,3-1.12,1.51-2.08,6.94-2,9Z"/>
  <path class="st1" d="M369,424v1c-1.96-.01-5.28,2.15-7.78,2.72-20.46,4.64-49.62,7.17-69.76.32-4.59-1.56-7.45-2.68-9.46-7.04,21.27,5.37,43.41,7.12,65.04,2.54,2.58-.55,12.69-3.09,13.96-4.54,2.85-3.25-2.36-27.54,6.07-21.57,2.74,1.94-.89,22.62,1.93,26.57Z"/>
  <path class="st1" d="M652,323c0,.13-1.04,1.11-1.04,2.42-.01,4.86.09,9.74.05,14.59h-89.51c-3.27-.37-3.01-3.6-1.5-6.01,27.52,0,55.07-.04,82.6.05,1.32.18,1.63-.31,2.4-1.05,1.25-1.19,1.88-2.93,0-4,0-3.5.35-7.64,0-11,2.86-.38,6.71.76,7,4,.03.32.01.67,0,1Z"/>
  <path class="st1" d="M507.35,243.85c-12.26,10.16-69.35,8.78-81.67-.81-.94-.73-.59-1.96-.68-2.04,20.73,3.32,44.54,6.88,65.2,1.7,11.78-2.95,17.18-7.69,15.8-20.7.18.19,2.05.32,3.04,1.41,4.83,5.28,3.78,15.91-1.69,20.44Z"/>
  <path class="st1" d="M398.01,340.01h-89.01s1-6.01,1-6.01c6.31.19,34.21,1.03,37.99-.51,1.01-.42,1.75-2.13,2.51-2.49.74-.34.27,1.51,1.16,2.02,2.7,1.56,31.85,1.45,36.85.98,5.51-.52,5.22-2.55,4.49-8,8.17-1.3,4.1,9.01,5.01,14.01Z"/>
  <path class="st1" d="M713,406.5v23c0,.83-2.42,1.77-3.45,1.55l-83.97-.03-.58-5.02c26.46.93,53.11-.74,79.6.05,1.31.17,1.63-.28,2.4-1.05,2.45-2.45.24-16.73,1.01-21,1.44-.7,4.99,1.56,4.99,2.5Z"/>
  <path class="st1" d="M606,224v19.5c0,3.28-13.83,6.1-16.62,6.38-13.92,1.37-53.34,2.53-64.18-5.53-1.57-1.16-1.1-2.27-1.2-2.35,7.28.71,15.28,2.59,22.51,2.99,9.13.51,46.79.55,52.5-5.51,1.33-1.41.66-2.38.99-3.48,1.27-4.26,1.18-7.46.99-12.01h5.01Z"/>
  <path class="st1" d="M699.42,250.02h-85.84l-.58-5.02c26.78,2.01,55.97-1.5,83.01.01.04-2.66-.07-5.35-.01-8.01.05-2.34-.53-14.48,0-15,.35-.34,3.82-.14,4.56.94.8,1.15.5,5.61.52,7.47.01.81.92,1.5.92,1.59-.05,1.52-1.85,7.43-2,12-.04,1.37.51,5.85-.58,6.02Z"/>
  <path class="st1" d="M619,414c-.02.33.01.67,0,1-.01.13-.96,1.09-1.05,2.41-.28,4.48.3,9.12.06,13.6l-86.05-.47.04-4.54c24.88-2.08,54.26,2.76,78.6.05,1.4-.15,1.42-.07,2.4-1.05,2.47-2.47.23-17.63,1-22,6.69-1.42,5.27,6.23,5,11Z"/>
  <path class="st1" d="M795,230.5v19.5h-90l1-5c27.61-.7,55.38.52,83,0,2.41-.79.1-15.14,1-16,.58-.55,5,.23,5,1.5Z"/>
  <path class="st1" d="M651,299h-22c.73,4.83,2.86,8.88,2,14l-33.01.99v6.01c-10.46-.45-6.32-2.63-6.99-12h33.5c1.86,0,1.55-5.57,1.5-7-.1-2.81-.99-5.23-1-8,.67.02,1.33-.02,2,0,4.03,1.41,11.41,1.56,15.55,1.04,1.11-.13,1.96.44,2.45-1.04.45-1.36.21-11.75,0-14,1.42-.06,5.7.23,6.04,1.66,1.1,4.59-.89,13.21-.04,18.34Z"/>
  <path class="st1" d="M795.01,210.01l-24,1c-.11,3.22,3.4,2.27,4.54,5.94.82,2.63.39,5.37.45,8.05-5.32.02-10.68-.04-16,0-2.34.02-15.46-.59-16,0-.81.86,2.14,7.82-6,6-2.19-2.07-2.97-12-.5-12h32.5c-.34-3.28,1.02-7.24-1-10,.26-.22-.26-2.75-.01-3,1.07-1.01,16.4,1.51,19.01-1,.36-.05.78.1,1,0,2.18-1.01.46-10.35,1-13,8.73-1.44,3.73,12.33,5.01,18.01Z"/>
  <path class="st2" d="M425.53,150.01c-5.79.39-11.74-.3-17.53-.01-.64-.55-2.49.4-3.02-2.47-.46-2.5-.3-25.5.46-26.59.92-1.33,19.59-1.38,20.37-.7.48.41.06,1.63.19,1.76.1,9.15-15.74-1.45-14,9,.99.04,2-.02,3,0,2.41.05,6.43-.5,8.4.14,1.63.53,1.46,2.77,1.6,2.86-.43,1.53,1.38,3.81-1.47,4.01-3.48.23-7.06-.19-10.53-.01.2,1.29-.47,4.09.15,4.89.35.46,1.48-.04,1.85.11,4.71,1.89,7.89.06,11.34.98,1.11.3.53,1.89.66,2.02-.43,1.53,1.38,3.82-1.47,4.01Z"/>
  <path class="st2" d="M548.47,119.98c-5.91.7-6.65,3.78-7.47,9.02-.33,2.13.37,4.93,0,7,3.97,3.11,7.83,4.71,13,4.01-1.71,4.05-9.35,4.26-7.84,9.32.34,1.15,1.6,1.33,1.84,1.67,10.88-1.88,15.86-12.81,16-23-4.48-6.87-6.5-9.09-15.53-8.02ZM549,133.99c.43-6.05.8-6.71,7-5.99.53,5.94-1.38,7.77-7,5.99Z"/>
  <path class="st2" d="M438.44,126.95c-2.87,3.91,1.67,2.64,2.56,3.05,2.23,1.03,8.22,4.47,10,6,3.68,11.75-5.8,15.45-16,14-2.86-1.71-4.34-2.45-4-7,2.89-.88,13.05,3.57,13.04-1.52,0-3.62-10.53-4.07-12.53-8.5-.9-2.01-.95-8.01-.01-9.98,2.3-4.84,18.68-5.44,21.05.03.98,2.26-.75,2.68-1.55,3.97-3.1.56-10.58-2.74-12.56-.05Z"/>
  <path class="st2" d="M538,129c-1.52-12.02-20.74-12.17-22.04-1.54-1.13,9.25,4.08,13.43,13.04,12.55-1.55,3.88-8.29,4.45-6.85,9.31.34,1.16,1.62,1.35,1.85,1.68,9.04-2.28,15.13-13.04,14-22ZM526,134c-7.39-.99-.3-12.87,4-6,2.52,4.03.81,6.65-4,6Z"/>
  <path class="st2" d="M569,150c-1.68-1.45-4.69-3.14-2.57-6.07,2.07-2.86,14.04,3.05,12.59-3.4-1.07-4.81-11.02-3.53-11.02-4.53v-14.5c0-2.16,16.13-1.88,16.82-1.28.47.4.05,1.67.18,1.78,2.12,7.73-8.36,1.72-10.56,4.94-2.53,3.68.03,3.89,2.56,4.06,5.33.36,5.82.94,9,5,3.25,11.86-6.99,15.52-17,14Z"/>
  <path class="st1" d="M276.78,229.28c-1.33,2.54-4.75,2.19-6.78,5.72-2.89,5.03-4.51,14.83-11.56,15.94-5.07.8-13.67,1.04-13.44-5.93,3.33-.56,9.77,1.23,12-1.01,3.61-3.63,15.72-31.93,19.5-31.98,2.61-.04,1.59,14.76.28,17.26Z"/>
  <path class="st1" d="M312,304c-1.88,2.47-.67,5.85-1.47,9.03-.8,3.21-4.45,7.15-5.53,9.97-1.28,3.35-.43,6.42-1,8-.05.15-1.84.92-2.44,2.01-.69,1.27-2.58,5.87-3.23,6.03-3.21.77-21.38,1.66-19.33-5.03,2.88-.56,11.73,1.19,13-1.01.92-1.58,1.64-4.53,2.83-6.67,2.35-4.2,11.52-21.39,14.17-23.33.94-.69,1.77-1.2,3-1,.02.66-.03,1.33,0,2Z"/>
  <path class="st2" d="M471.44,126.94c-1.77,2.54.61,17.19-.4,21.4-.34,1.43-4.62,1.72-6.04,1.66-2.02-3.38-.86-16.09-1-21-.03-1,.04-2.01.01-3h-7.01c-.1-.12-1.73.46-2.02-.66-.45-1.73.3-4.4.03-6.34,6.86,3.06,18.83-.74,25.33.98,1.11.3.53,1.89.66,2.02.98,6.79-7.74,2.32-9.56,4.94Z"/>
  <path class="st1" d="M569,204c-4.15.22-15.66-1.16-18.08,2.67-2.36,3.74-.67,19.3.08,24.33-3.3-.71-5.71.16-6.79-4.71-.77-3.51-.69-23.23.89-25.69,2.76-4.28,19.81-5.18,22.99-1.18,1.42,1.78.53,3.42.91,4.58Z"/>
  <path class="st1" d="M552.9,290.9c-.36.42-8.27,1.86-10.58,2.92-5.26,2.41-10.55,7.84-15.32,11.18-1.74-1.87-7.6-4.79-5.54-8.01.45-.7,12.32-8.44,13.86-9.17,5.82-2.76,12.08-1.05,12.68-8.82,1.01,1.13,4.65.74,4.96,1.04.39.38.29,10.45-.06,10.86Z"/>
  <path class="st1" d="M417.36,431.86c-6.25-.83-39.54,1.74-42.42-.29-1.42-1.01-.92-3.98-.94-5.57,11.21-.09,25.97,1.25,36.6.05,1.39-.15,1.42-.07,2.4-1.05,2.14-2.15.16-8,1.51-8.01,5.97-.7,5.69,13.94,2.85,14.87Z"/>
  <path class="st1" d="M575.05,378.46c-.2,7.41-5.81,7.02-6.09,8.2-1.5,6.22,1.19,18.38.04,25.34-1.26-.03-5.85,1.35-6.87-1.63-.6-1.74-.56-23.97-.18-26.92.73-5.68,4.78-4.41,5.82-5.67.67-.8.31-4.58,2.23-5.78,3.26,1.52,5.21.24,5.05,6.46Z"/>
  <path class="st1" d="M354.05,287.55c-.7,4.86-3.46,3.6-5.12,5.88-2.57,3.5-.27,21.85-.09,27.14.04,1.17-.84,2.1-.84,2.43-2.47-.27-5.54-3.19-5.98-5.52-.76-4.04-.66-23.64-.07-28.03.82-6.07,6.73-3.01,7.05-10.45,5.85-1.18,5.66,4.23,5.05,8.55Z"/>
  <path class="st1" d="M701.01,340.01c-5.74-.73-41.97,1.33-43.59-.96-1.01-1.42.3-3.59.58-5.05,12.62.44,25.37-.33,38.01.01-.14-2.65.18-5.38-.01-8.01,7.08,1.45,4.69,8.7,5.01,14.01Z"/>
  <path class="st1" d="M523.05,383.34c-.37,1.49-6.05.89-6.05,4.16v17c0,2.4.97,6.91,1,10.5-4.59-.95-6.62-2.84-7.06-7.44-.38-3.92-.6-24.11.25-26.87.88-2.86,6.93-2.14,6.81-8.69,6.22-1.31,6.08,7.14,5.05,11.34Z"/>
  <path class="st1" d="M452.5,340c-12-1.08-26.38,1.44-38.06.06-3.78-.45-4.24-2.53-4.44-6.06,13.27.6,26.72-.45,40.01.01-.1-2.32.12-4.69-.01-7.01l3-1c-.74,2.15.62,3.58,1,5,.24.91.98,2.84,1,3,.27,2.47.5,5.82-2.5,6Z"/>
  <path class="st1" d="M655.34,201.77c-.88,2.12-3.07,1.41-4.1,2.45-2.55,2.57-1.19,23.1-.24,27.78-3.98-.18-6.45,1.41-7.05-3.45-.57-4.6-.73-23.88.07-28.03,1.08-5.6,7.12-.82,5.98-10.52,7.39-1.7,7.41,6.83,5.34,11.77Z"/>
  <path class="st1" d="M319.49,202c-1.02,1.69-4.77,1.83-5.46,5.53-1.22,6.44.09,19.11-.03,26.47-2.68-.41-5.42-1.64-5.98-4.52-.54-2.81-.29-28.9.47-30.48,1.04-2.14,4.34-2.21,5.29-3.26.5-.55.08-1.52.22-1.74.62-.98,1.16-1.68,1.05-2.95,5.43-1.43,6.26,7.94,4.44,10.95Z"/>
  <path class="st1" d="M668.06,384.39c-.38,1.4-5.74.82-6.12,2.22-1.62,5.94,1.32,19.51.06,26.39-.66-.04-1.35.08-2,0l-2-1c-.45-.2-1.82.6-2.04-.63.9-5.2-1.47-29.51,1.01-31.9,3.14-3.04,5.37,1.22,6.03-6.47l5-1c-.62,3.39.85,9.5.06,12.39Z"/>
  <path class="st1" d="M368.04,202.33c-.29,1.21-3.08,1.17-4.07,2.13-2,1.95-1.14,22.42.03,26.54-3.79-.88-6.41-.65-7.05-5.45-.52-3.95-.63-21.44.07-25.03.86-4.34,8.62-2.95,5.98-11.52,1.12.87,4.59,1.77,4.84,2.16.3.47.47,10.09.2,11.17Z"/>
  <path class="st1" d="M523.01,431.01c-13.2-1.51-30.79,1.99-43.43.01-1.26-.2-.31-3.82-.58-5.02,12.4.44,24.94-.2,37.36-.14,2.61-.86,1.56-6.45,1.64-8.86,8.43-.05,4,7.77,5.01,14.01Z"/>
  <path class="st1" d="M468.07,394.57c-1.6,3.2-7.12,5.33-7.1,7.93.01,1.57,6.82,8.47,4.03,13.5-.97-1.3-4.12-2.42-4.8-4.71-.83-2.8.68-7-.7-9.29-1.27-2.09-10.79-4.86-7.89-7.07.98-.74,3.66-1.27,5.32-2.5,5.83-4.31,6.12-8.7,6.07-15.43,5.47,4.82,8.71,10.27,5.07,17.57Z"/>
  <path class="st1" d="M319,250h-43v-5.01c11.27-.96,24.59,1.3,35.6.06,1.39-.15,1.42-.07,2.4-1.05,2.13-2.15.46-6.44,1.01-7,.37-.38,2.74-.14,3.51.98,1.43,2.07-.03,9.16.48,12.02Z"/>
  <path class="st1" d="M754,340h-30.5c-2.05,0-6.48-3.22-5.5-6,9.37,1.28,21.33-.95,31.01.01-.15-2.64.2-5.38-.01-8.01,8.38-.61,4.02,8.19,5,14Z"/>
  <path class="st1" d="M232.36,249.86c-10.29-1.05-25.17,1.9-34.86.14-3.35-.61-3.08-4.87-1.94-5.01,9.53-.81,20.75,1.11,30.04.06,1.39-.15,1.42-.07,2.4-1.05,1.86-1.88.81-4.52,1-7,6.3-1.89,6.43,11.86,3.36,12.86Z"/>
  <path class="st1" d="M472,431c-6.22-.9-12.54,1.06-18.5,1.06-2.07,0-14.84-1.14-15.51-1.55-1.23-.73-1.74-3.12-1.99-4.51,8.8,1.37,20.81-1.01,30,0-.89-1.85.17-6.98,0-8,7.54-1.42,4.38,8.23,6,13Z"/>
  <path class="st1" d="M554,334c-.11.94-1.83,3.07-1.01,5-4.82-.82-36.45,1.14-37.88-.11-.4-.35-.64-3.88-1.11-4.89,3.25.49,31.36.53,33.36-.14,2.3-.76,1.77-4.81,1.64-6.86l5,1c-.2,1.93.23,4.1,0,6Z"/>
  <path class="st2" d="M510.86,148.36c-.7,2.09-3.21,1.71-4.86,1.64-.39-.57-1.6-.42-1.99-2.47-1-5.41,1.08-13.85.06-18.98-.16-.81-5.15.81-2.93-5.91.71-2.17,7.79-3.77,9.41-1.65.68.9.21,2.31.45,3.01-1.13,6.13,1.6,19.21-.14,24.36Z"/>
  <path class="st1" d="M268.01,339.01c-11.7-1.34-27.23,1.76-38.43.01-1.26-.2-.31-3.82-.58-5.02,11.04.63,22.3-.5,33.37.04,1.23-.24.43-1.53.63-2.04.09-.24.19-.46.27-.68.69-1.71,1.2-2.98.74-5.32,6.28,1.62,3.46,7.95,4,13.01Z"/>
  <path class="st1" d="M606,196v15.5c0,1.1-2.44,1.43-3.45,1.55-4.34.51-21.13.68-25.05-.05-2.96-.55-2.61-2.32-2.5-5h26v-13s5,1,5,1Z"/>
  <path class="st1" d="M472.5,227.05c-13.11-.69-34.49-5.13-44.5-13.05,13.13,3.4,28.08,4.3,41.04,7.46,2.85.7,5.33.8,6.96,3.54.6,2.86-1.64,2.14-3.5,2.05Z"/>
  <path class="st1" d="M367,377.5v15.5c-6.57.82-14.23-.59-20.59-.04-1.32.11-2.28,1.04-2.41,1.04-.67.02-1.33-.02-2,0-2.91-1.72-3.48-3.68-3-7,.66.04,1.34-.04,2,0,.15.01,1.11.97,2.42,1.04,3.11.19,14.78.53,16.94-.18,3.46-1.14.36-9.15,2.11-11.89,1.52-2.38,4.53,1.11,4.53,1.53Z"/>
  <path class="st1" d="M741,308c-1.73,0-4.44-1.64-6.03-2.53-.9-.5-2.69-.12-1.96-1.96,1.39-3.52,10.53-3.49,11.93-11.08.27-1.44.33-5.01.06-6.43,11.42,2.26,6.09,22-4,22Z"/>
  <path class="st1" d="M511,210h-27.5c-1.42,0-4.48-2.99-3.5-4.99.92-.91,20.81,1.03,24.36-.15,2.28-.76,1.79-4.82,1.64-6.86-.02-.33.06-.68,0-1,7.3-.19,4.57,7.93,5,13Z"/>
  <path class="st1" d="M501.01,339.01c-7.56-1.16-23.1,2.12-29.21-1.33-1.9-1.08-2.18-1.36-1.8-3.68,4.98,0,21.02.97,24.36-.14,2.24-.74,1.83-4.79,1.64-6.86,7.96-.43,4.28,6.33,5.01,12.01Z"/>
  <path class="st1" d="M430,409c-6.16,1.35-18.76-3.92-18,5-6.01.1-8.63-10.23-3.3-11.8,2.76-.81,13.18-.44,16.14.46,3.62,1.1,4.75,2.78,5.16,6.34Z"/>
  <path class="st1" d="M695,322c-5.73.75-10.05-10.32-5.36-11.86,1.81-.59,15.4-.43,17.65.07,3.03.68,4.31,2.87,4.71,5.79h-17.01c.11,1.97-.15,4.03.01,6Z"/>
  <path class="st1" d="M449,322c-2.77-1.47-4.21-4.18-5.8-6.69-7.47-11.78-14.26-25.69-20.2-38.31.56.4,1.83.15,3.01,1.45,3.94,4.32,21.62,37.7,22.99,43.55Z"/>
  <path class="st1" d="M502,288c-3.45,4.02-6.93,7.93-11.99,10,.37-3.13-.69-7.4.18-10.3,1.09-3.61,6.31-1.45,6.81-8.7,7.41-1.11,6.73,3.46,5,9Z"/>
  <path class="st1" d="M482.86,128.86c-1.12,1.83-8.86-.44-8.86,3.64v18c0,1.55-6.85,3.09-9-.5,1.42.06,5.7-.23,6.04-1.66,1.01-4.21-1.37-18.86.4-21.4,1.82-2.62,10.54,1.85,9.56-4.94.13.13,1.73-.45,2.01.66.25.94.22,5.58-.15,6.2Z"/>
  <path class="st1" d="M410.98,318.52c-.01.32-.94.36-.98.48-2.69,1.41-5.39,2.7-8.5,3-4.04.39-8.16-.7-11.5-1-3.64-.32-6.23-.17-6-4.99,6.81,1.17,19.34-1.59,25.34-.06.5.13,1.64,2.39,1.64,2.57Z"/>
  <path class="st1" d="M228,233c-8.9-.79-7.66-9.35-7.01-16.51.83-8.95,6.31-1.84,7.01,2.51.58,3.64.06,9.98,0,14Z"/>
  <path class="st1" d="M261,322c-1.49.46-6-4.12-6-4.5v-15c0-4.42,6.65,1.88,7,6.5.25,3.27-1.18,9.84-1,13Z"/>
  <path class="st1" d="M499,315c-4.07-.08-2.67,4.9-5,7-1.16-1.17-3.53-.82-4.56-3.94-1.58-4.79-1.11-12.88,5.57-9.57,2.21,1.1,2.94,5.08,3.99,6.51Z"/>
  <path class="st1" d="M541,136c-1.12,6.22-8.42,17.09-15.53,17.08-2.47,0-1.14-1.61-1.47-2.08,9.04-2.28,15.13-13.04,14-22h3c-.33,2.13.37,4.93,0,7Z"/>
  <path class="st1" d="M548.63,153.04c-1.19-.3-.45-1.79-.63-2.04,10.88-1.88,15.86-12.81,16-23,.17.26,1.44.36,1.81,1.64,2.62,8.96-7.87,25.79-17.18,23.4Z"/>
  <path class="st1" d="M569,150c10.01,1.52,20.25-2.14,17-14,.68.87,1.95,1.01,2.55,2.92,3.65,11.58-10.86,18.57-19.55,11.08Z"/>
  <path class="st1" d="M286.51,296.99c-2.38-.98-9.09-15.47-9.51-18.99.29.22,1.38.05,2.43,1.02,3.13,2.89,7.86,11.62,8.57,15.98-.22.29.7,2.9-1.49,1.99Z"/>
  <path class="st1" d="M449.55,151.05c-2.74,1.57-10.42,1.38-13.52.43-.59-.19-.79-1.34-1.03-1.48,10.2,1.45,19.68-2.25,16-14,4.81,4.13,3.79,12.07-1.45,15.05Z"/>
  <path class="st1" d="M577,131c-2.53-.17-5.09-.38-2.56-4.06,2.2-3.22,12.68,2.79,10.56-4.94.37.32,2.31-.1,2.86,1.6,2.86,8.85-6.01,4.92-10.86,7.4Z"/>
  <path class="st1" d="M415,131c-1-.02-2.01.04-3,0-1.74-10.45,14.1.15,14-9,.12.12,1.73-.45,2.02.66,3.13,12.16-8.62,3.21-13.02,8.34Z"/>
  <path class="st1" d="M253,208c-3.84.56-10.8-15.34-12-19,.62.42,1.68.16,3.01,1.45,3.45,3.33,7.99,12.65,8.99,17.55Z"/>
  <path class="st2" d="M487,146c.53,4.34-2.48,4.3-6,4-.1-.12-1.71.46-2.02-.66-.37-1.37-.27-6.05.95-6.9.91-.63,6.83-.7,7.08-.45.36.37-.36,3.42-.01,4.01Z"/>
  <path class="st1" d="M415,143c-.37-.15-1.5.35-1.85-.11-.62-.8.05-3.6-.15-4.89,3.47-.18,7.05.24,10.53.01,2.85-.2,1.04-2.48,1.47-4.01.46.29,2.73-.66,3.06.53,2.98,10.72-9.39,3.48-13.06,8.47Z"/>
  <path class="st1" d="M512.86,150.36c-.64,1.95-3.61,1.95-5.41,1.73-2.5-.31-1.11-1.59-1.45-2.09,1.65.07,4.16.45,4.86-1.64,1.74-5.15-.99-18.23.14-24.36,1.76,5.07,3.38,21.74,1.86,26.36Z"/>
  <path class="st1" d="M429,152c-5.52-.96-15.48,1.29-20.35.03-1.12-.3-.53-1.93-.65-2.03,5.79-.29,11.74.4,17.53.01,2.85-.19,1.04-2.48,1.47-4.01.12.12,1.73-.45,2.02.66.38,1.51-.22,3.68-.02,5.34Z"/>
  <path class="st1" d="M748,323c-7.6-1.22-5.56-5.5-6-11,6.02,1.17,5.24,6.48,6,11Z"/>
  <path class="st1" d="M450.39,129.07c-3.04.69-7.7-3.27-9.39.93-.89-.41-5.43.86-2.56-3.05,1.98-2.69,9.46.61,12.56.05-.21.34.6,1.8-.61,2.07Z"/>
  <path class="st1" d="M482.94,152.61c-2.43-.58-1.67-2.29-1.94-2.61,3.52.3,6.53.34,6-4,.05.09,1.73-.41,2.01.66,1.29,4.9-1.22,7.09-6.07,5.95Z"/>
  <path class="st1" d="M464.01,126c.03.99-.04,2-.01,3-1.88.06-4.06.1-5.8-.67-1.62-.71-1.01-2.11-1.2-2.33h7.01Z"/>
  <path class="st1" d="M397,307c-1.75.05-8.71.99-7.98-1.47.41-1.39,6.79-13.18,7.52-13.49,3.12-1.32,3.45,4.66,4.46,6.96.32,3.52-2.2,5.42-4,8Z"/>
  <path class="st0" d="M312,304c.15,3.64.6,11.79-.66,14.78-.35.84-4.92,3.79-6.34,4.22,1.08-2.82,4.73-6.76,5.53-9.97s-.41-6.56,1.47-9.03Z"/>
  <path class="st0" d="M401,299c.99,2.27,4.01,4.39,3,8-2.33.07-4.68-.06-7,0,1.8-2.58,4.32-4.48,4-8Z"/>
  <path class="st0" d="M312,302c-1.23-.2-2.06.31-3,1,.43-1.57,2.44-3.17,3-1Z"/>
  <path class="st1" d="M714,292h-19.01s0,6,0,6c-1.99-.07-4.01.06-6.01,0v-12.01h20.51c2.39,0,4.38,3.59,4.5,6Z"/>
  <path class="st0" d="M714,292c.44,8.54-12.38,6.23-19,6v-6.01s19,0,19,0Z"/>
  <path class="st1" d="M431,384c.56,3.03-1.53,1.92-3.45,2-4.65.18-17.27-2.22-13.53,4.49l-5.01.51c-5.3-1.98-.81-6.85-2-12h17.5c2.66,0,5.5,2.56,6.5,5Z"/>
  <path class="st0" d="M409,391l5.01-.51c-3.74-6.71,8.88-4.3,13.53-4.49,1.92-.08,4.01,1.03,3.45-2,4.44,10.86-16.07,9.21-22,7Z"/>
  <path class="st1" d="M614,292c-2.23-.07-15.46-.59-16.01,0-.98,1.04,2.72,5.43-4.99,4.01-.51-.2-1.75.61-2.04-.63-.59-2.44.49-6.62.04-9.38,6.75,1.6,23.9-4.53,23.01,6.01Z"/>
  <path class="st0" d="M614,292c3.45.11,7.09.88,11,1,.01,2.77.9,5.19,1,8-1.63-.48-.32-3.83-1.57-4.06-8.66-1.58-23.39,2.28-31.43-.94,7.72,1.42,4.01-2.97,4.99-4.01.55-.58,13.77-.06,16.01,0Z"/>
  <path class="st0" d="M645,293c-.49,1.48-1.34.91-2.45,1.04-4.15.52-11.53.36-15.55-1.04,5.98.16,12.02-.12,18,0Z"/>
  <path class="st0" d="M645,333v-4c1.88,1.07,1.25,2.81,0,4Z"/>
  <path class="st1" d="M759,204c-4.6-.13-10-.32-14.53,0-2.85.19-1.04,2.47-1.47,4.01-1.6-.22-5.16.73-6.12-.58-1.21-1.67-1.8-8.44.75-9.28,1.4-.46,17.32-.45,18.7.02,2.01.69,2.67,3.82,2.66,5.84Z"/>
  <path class="st0" d="M759,204c9.08.25,20.12,2.18,29,1-2.61,2.51-17.94-.01-19.01,1-.25.24.26,2.77,0,3-1.15.99-22.58-.53-26-1,.43-1.54-1.38-3.82,1.47-4.01,4.53-.31,9.94-.12,14.53,0Z"/>
  <path class="st0" d="M760,225c-1.42,1.48-.48,4.74-1.16,5.83-1,1.62-19,1.91-20.84.17,8.14,1.82,5.19-5.14,6-6,.55-.59,13.66.02,16,0Z"/>
  <path class="st0" d="M333,386c1.23.08,3.59.86,6,1-.48,3.32.09,5.28,3,7-2.36.09-4.07-.08-6.47-.05-4.68.07-15.59-1.93-15.59,3.52,0,7.84,5.44,2.57,10.06,5.53-5.53-1.79-6.35,2.27-5.99,7,3.28.51,5.54-1.19,7.99-3,.35,8.41-17.78,6.97-23,4,2.59-.08,3.32,1.01,2.75-2.23-.59-3.42-.31-19.74,1.48-21.53s16.24-1.46,19.76-1.24Z"/>
  <path class="st1" d="M333,386c-3.52-.22-17.89-.63-19.76,1.24s-2.08,18.11-1.48,21.53-.17,2.16-2.75,2.23c-.5-.28-1.69.16-2.48-.98-1.97-2.86-1.81-14.66-1.51-18.51.12-1.56,1.09-8.86,1.48-9.53,2.53-4.33,26.78-5.71,26.51,4.01Z"/>
  <path class="st1" d="M330,403c1.28.41,1.95,2.77,2,4-2.46,1.8-4.72,3.5-7.99,3-.35-4.72.47-8.78,5.99-7Z"/>
  <path class="st1" d="M475,203c-2.18-.13-3.99-.98-6.34-.93-4.82.11-9.91,2.61-14.66,2.93-2.09-.97-5.39-1.59-3.55-5.02,1.91-3.57,25.64-6.26,24.55,3.02Z"/>
  <path class="st0" d="M660,413c-.99-.12-1.39-.73-2-1l2,1Z"/>
  <path class="st0" d="M556,128c.52,5.94-1.38,7.77-7.01,5.99.43-6.05.8-6.7,7.01-5.99Z"/>
  <path class="st1" d="M530,128c-3.58-.18-2.74,3.61-4,6-7.39-.99-.3-12.87,4-6Z"/>
  <path class="st0" d="M530,128c2.52,4.03.81,6.65-4,6,1.26-2.39.42-6.18,4-6Z"/>
</svg>