<svg width="36" height="36" viewBox="0 0 36 36" fill="none" xmlns="http://www.w3.org/2000/svg">
<path d="M28.7244 0H7.27109C3.25309 0 0 3.2535 0 7.272V28.7325C0 32.7465 3.25309 36 7.27109 36H28.7289C32.7424 36 36 32.7465 36 28.728V7.272C35.9955 3.2535 32.7424 0 28.7244 0Z" fill="url(#paint0_linear_1_26)"/>
<path d="M17.8454 8.27102L18.5743 7.01102C19.0242 6.22352 20.0276 5.95802 20.815 6.40802C21.6024 6.85802 21.8679 7.86152 21.4179 8.64902L14.3943 20.808H19.4742C21.1209 20.808 22.0433 22.743 21.3279 24.084H6.43479C5.52591 24.084 4.797 23.355 4.797 22.446C4.797 21.537 5.52591 20.808 6.43479 20.808H10.6103L15.9556 11.5425L14.2863 8.64452C13.8364 7.85702 14.1018 6.86252 14.8892 6.40352C15.6766 5.95352 16.671 6.21902 17.1299 7.00652L17.8454 8.27102ZM11.5282 25.7715L9.95335 28.503C9.50341 29.2905 8.50003 29.556 7.71263 29.106C6.92523 28.656 6.65976 27.6525 7.10971 26.865L8.27956 24.84C9.60239 24.4305 10.6778 24.7455 11.5282 25.7715ZM25.0894 20.817H29.3504C30.2593 20.817 30.9882 21.546 30.9882 22.455C30.9882 23.364 30.2593 24.093 29.3504 24.093H26.9837L28.581 26.865C29.031 27.6525 28.7655 28.647 27.9781 29.106C27.1907 29.556 26.1963 29.2905 25.7374 28.503C23.0467 23.8365 21.0265 20.3445 19.6856 18.018C18.3133 15.651 19.2942 13.275 20.2616 12.4695C21.3369 14.3145 22.9432 17.1 25.0894 20.817Z" fill="white"/>
<defs>
<linearGradient id="paint0_linear_1_26" x1="17.9977" y1="0" x2="17.9977" y2="36" gradientUnits="userSpaceOnUse">
<stop stop-color="#0ED4FC"/>
<stop offset="1" stop-color="#0C57EF"/>
</linearGradient>
</defs>
</svg>
